
<svg {...props} viewBox="0 0 205.69 8.06">
  
  <g id="Layer_1-2" data-name="Layer 1">
    <g>
      <path class="cls-1" d="m1.32,6.96c-1.04-.88-1.32-2-1.32-3.01,0-.7.23-1.91,1.25-2.81C2.04.46,3.06.07,4.62.07c.65,0,1.06.04,1.54.11.41.06.72.13,1.04.17.11.01.16.06.16.12,0,.08-.02.23-.05.59-.01.34-.01.92-.04,1.14-.01.16-.04.24-.13.24-.08,0-.13-.08-.13-.23-.01-.3-.11-.66-.4-.95-.35-.37-1.15-.64-2.12-.64-.88,0-1.46.2-1.92.6-.73.66-.96,1.61-.96,2.61,0,2.36,1.76,3.59,3.27,3.59.94,0,1.46-.1,1.87-.55.18-.19.3-.48.35-.7.05-.18.08-.22.17-.22.07,0,.11.07.11.16,0,.13-.13,1.04-.24,1.42-.05.18-.1.23-.28.3-.42.17-1.21.23-1.88.23-1.44,0-2.67-.28-3.66-1.1Z"/>
      <path class="cls-1" d="m14.74,3.43s.07-.02.07-.07v-.22c0-1.55,0-1.81-.02-2.13-.02-.34-.11-.47-.46-.54-.08-.01-.26-.02-.4-.04-.13,0-.19-.05-.19-.12s.07-.1.22-.1c.59,0,1.3.04,1.56.04.22,0,.98-.04,1.42-.04.14,0,.2.02.2.1s-.05.12-.18.12c-.11.01-.19.01-.31.04-.29.04-.37.19-.4.54-.02.32-.02.6-.02,2.16v1.8c0,.95,0,1.71.06,2.15.02.3.1.52.41.56.14.02.38.02.53.04.12,0,.17.06.17.11,0,.07-.08.11-.2.11-.7,0-1.44-.04-1.71-.04-.23,0-.91.04-1.36.04-.16,0-.22-.04-.22-.11,0-.05.04-.11.17-.11.14-.01.28-.01.37-.04.22-.05.28-.26.31-.58.06-.42.06-1.18.06-2.11v-.88s-.04-.06-.07-.06h-3.89s-.07.01-.07.06v.91c0,.95,0,1.65.06,2.1.02.29.11.5.42.54.16.04.37.04.52.05.12,0,.18.06.18.11,0,.07-.08.11-.22.11-.67,0-1.44-.04-1.7-.04-.22,0-.96.04-1.38.04-.12,0-.2-.04-.2-.11,0-.05.04-.11.17-.11.16-.01.28-.01.37-.04.22-.05.29-.28.31-.58.06-.42.06-1.19.06-2.13v-1.8c0-1.55,0-1.82-.02-2.15-.02-.35-.11-.48-.47-.55-.08-.02-.24-.02-.38-.04-.13,0-.18-.05-.18-.12s.08-.1.22-.1c.58,0,1.27.04,1.55.04s.98-.04,1.4-.04c.17,0,.23.04.23.11s-.08.11-.19.11c-.1.01-.23.02-.31.04-.29.04-.37.2-.4.55-.02.32-.02.62-.02,2.12v.22s.04.07.07.07h3.89Z"/>
      <path class="cls-1" d="m19.44,3.17c0-1.56,0-1.79-.02-2.11-.02-.36-.12-.52-.44-.58-.13-.02-.28-.04-.41-.05-.12,0-.18-.04-.18-.11s.07-.11.23-.11c.54,0,1.27.04,1.48.04.32,0,1.18-.04,1.54-.04.72,0,1.43.07,1.97.42.34.22.78.73.78,1.43,0,.77-.36,1.45-1.4,2.23.89,1.1,1.63,2.05,2.25,2.69.58.61.97.66,1.16.71.11.01.19.01.28.02.1,0,.14.05.14.1,0,.08-.07.12-.2.12h-1.01c-.7,0-1-.07-1.3-.23-.42-.23-.82-.7-1.37-1.45-.43-.6-.88-1.24-1.03-1.42-.04-.05-.1-.06-.17-.06l-.85-.02s-.08.02-.08.08v.22c0,.92,0,1.63.05,2.05.02.3.1.53.42.56.14.04.36.04.5.05.1,0,.13.05.13.1,0,.07-.07.12-.2.12-.64,0-1.48-.04-1.63-.04-.18,0-.91.04-1.33.04-.13,0-.2-.04-.2-.11,0-.05.05-.11.17-.11.16-.01.29-.01.38-.04.2-.05.28-.26.3-.58.06-.42.06-1.19.06-2.13v-1.8Zm1.35.78c0,.1.02.14.1.17.22.08.53.12.8.12.38,0,.55-.05.73-.18.3-.22.59-.66.59-1.48,0-1.45-1-1.83-1.6-1.83-.25,0-.44.01-.54.05-.06.02-.08.06-.08.14v3.01Z"/>
      <path class="cls-1" d="m27.17,3.17c0-1.56,0-1.8-.02-2.13-.02-.34-.13-.5-.36-.55-.11-.02-.24-.04-.37-.05-.11,0-.17-.04-.17-.12,0-.06.07-.1.24-.1.42,0,1.14.04,1.4.04.24,0,.95-.04,1.36-.04.14,0,.2.04.2.1,0,.08-.06.12-.17.12-.11.01-.16.01-.28.04-.29.05-.37.23-.4.58-.04.32-.04.56-.04,2.12v1.8c0,.96.01,1.74.06,2.17.02.28.11.49.42.53.16.04.3.04.46.05.13,0,.18.06.18.11,0,.07-.08.11-.2.11-.71,0-1.39-.04-1.64-.04-.2,0-.92.04-1.34.04-.14,0-.22-.04-.22-.11,0-.05.05-.11.18-.11.14-.01.23-.01.32-.04.2-.05.3-.23.32-.52.06-.43.06-1.2.06-2.19v-1.8Z"/>
      <path class="cls-1" d="m30.84,7.8c-.17-.07-.2-.14-.2-.35,0-.61.04-1.21.05-1.39.01-.17.05-.26.13-.26.1,0,.11.08.12.17.01.13.01.31.07.48.22.78.88,1.1,1.56,1.1.96,0,1.39-.59,1.39-1.12,0-.48-.14-.94-1.03-1.58l-.5-.38c-1.19-.9-1.57-1.58-1.57-2.42,0-1.13.97-1.97,2.47-1.97.48,0,.77.06,1.07.11.17.02.31.06.43.07.1.01.12.06.12.13,0,.17-.05.46-.05,1.27,0,.23-.04.31-.12.31-.07,0-.11-.07-.12-.2-.01-.13-.08-.42-.24-.65-.18-.28-.52-.54-1.2-.54-.79,0-1.25.43-1.25,1.02,0,.44.22.84,1.08,1.43l.34.23c1.34.91,1.77,1.62,1.77,2.59,0,.62-.26,1.33-1.03,1.81-.54.32-1.15.41-1.7.41-.65,0-1.13-.07-1.58-.26Z"/>
      <path class="cls-1" d="m40.08,4.97c0,.91,0,1.71.05,2.16.04.28.1.5.42.54.14.02.36.04.52.05.12,0,.18.05.18.1,0,.07-.07.12-.22.12-.7,0-1.43-.04-1.69-.04-.24,0-.97.04-1.38.04-.14,0-.22-.05-.22-.12,0-.05.05-.1.18-.1.14-.01.26-.01.36-.04.23-.05.29-.26.32-.56.05-.43.05-1.2.05-2.15V.82c-.4,0-1.19,0-1.67.04-.61.05-.79.1-.94.36-.07.13-.1.22-.14.34-.02.07-.06.12-.12.12-.07,0-.1-.06-.1-.18.01-.22.2-1.07.23-1.2.02-.14.06-.22.12-.22.08,0,.18.1.44.12.29.04.72.06,1.08.06h4.25c.34,0,.56-.04.72-.06.16-.02.24-.05.3-.05.07,0,.08.06.08.24,0,.2-.05.95-.05,1.21-.01.11-.04.17-.11.17-.08,0-.1-.06-.11-.2,0-.04-.01-.08-.01-.13-.02-.28-.28-.55-1.16-.56-.29-.02-.73-.04-1.39-.05v4.15Z"/>
      <path class="cls-1" d="m52.19,6.61c.1.64.2.91.52,1.01.3.08.5.08.65.1.11,0,.18.04.18.1,0,.08-.12.12-.28.12-.38,0-1.73-.02-2.29-.07-.23-.01-.3-.05-.3-.11,0-.05.05-.11.12-.13.08-.04.11-.12.06-.44l-.59-4.37-2.3,4.53c-.24.49-.3.58-.38.58-.11,0-.2-.19-.4-.53-.28-.48-1.08-1.95-1.26-2.3-.11-.23-.73-1.49-1.07-2.18l-.52,3.86c-.02.24-.02.38-.02.54,0,.22.12.31.31.36.19.04.32.04.44.05.1,0,.16.05.16.1,0,.1-.08.12-.24.12-.46,0-.94-.04-1.16-.04-.22,0-.73.04-1.08.04-.1,0-.18-.02-.18-.12,0-.05.06-.1.17-.1.08-.01.17-.01.31-.02.31-.06.4-.43.46-.84l1.02-6.55c.05-.2.11-.3.19-.3.1,0,.16.06.31.34l2.9,5.58,2.88-5.65c.11-.17.16-.26.25-.26.11,0,.17.11.2.34l.94,6.27Z"/>
      <path class="cls-1" d="m55.59,5.4s-.07.02-.1.08l-.53,1.31c-.1.25-.16.5-.16.62,0,.3.37.31.6.31.14,0,.18.05.18.1,0,.08-.08.11-.19.11-.37,0-.8-.04-1.18-.04-.12,0-.72.04-1.27.04-.13,0-.19-.02-.19-.11,0-.06.06-.11.14-.11.76-.07.92-.22,1.2-.91l2.54-6.01c.22-.56.34-.79.47-.79.1,0,.16.11.28.37.2.59,1.98,4.68,2.65,6.21.38.9.68,1.06.94,1.1.11.02.29.02.4.02.13,0,.18.05.18.11,0,.07-.05.11-.2.11-.5,0-1.76.02-2.52-.02-.11-.01-.18-.04-.18-.1,0-.05.05-.07.11-.1.11-.04.19-.07.12-.22l-.82-2.03s-.05-.07-.1-.07h-2.37Zm2.15-.6c.06,0,.06-.02.05-.06l-.94-2.45c-.04-.1-.07-.12-.12,0l-.95,2.45s0,.06.05.06h1.91Z"/>
      <path class="cls-1" d="m62.11,7.8c-.17-.07-.2-.14-.2-.35,0-.61.04-1.21.05-1.39.01-.17.05-.26.13-.26.1,0,.11.08.12.17.01.13.01.31.07.48.22.78.88,1.1,1.56,1.1.96,0,1.39-.59,1.39-1.12,0-.48-.14-.94-1.03-1.58l-.5-.38c-1.19-.9-1.57-1.58-1.57-2.42,0-1.13.97-1.97,2.47-1.97.48,0,.77.06,1.07.11.17.02.31.06.43.07.1.01.12.06.12.13,0,.17-.05.46-.05,1.27,0,.23-.04.31-.12.31-.07,0-.11-.07-.12-.2-.01-.13-.08-.42-.24-.65-.18-.28-.52-.54-1.2-.54-.79,0-1.25.43-1.25,1.02,0,.44.22.84,1.08,1.43l.34.23c1.34.91,1.77,1.62,1.77,2.59,0,.62-.26,1.33-1.03,1.81-.54.32-1.15.41-1.7.41-.65,0-1.13-.07-1.58-.26Z"/>
      <path class="cls-1" d="m70.81,1.25c-.14-.38-.25-.62-.42-.72-.12-.07-.31-.08-.41-.1-.11,0-.17-.04-.17-.11s.08-.11.24-.11c.56,0,1.16.04,1.27.04.13,0,.65-.04,1.25-.04.14,0,.22.05.22.11,0,.07-.07.11-.18.11-.1.01-.14.01-.26.05-.1.02-.13.11-.13.22,0,.13.11.44.24.91.17.61,1.12,3.56,1.34,4.22l2.03-5.21c.11-.29.19-.37.28-.37.11,0,.17.16.31.48l2.19,5.05c.23-.76,1.02-3.26,1.37-4.43.08-.26.12-.46.12-.6,0-.18-.1-.32-.53-.32-.1,0-.18-.05-.18-.11s.07-.11.24-.11c.58,0,1.04.04,1.14.04.07,0,.58-.04.94-.04.12,0,.19.05.19.11,0,.07-.06.11-.14.11-.11.01-.25.01-.37.06-.26.08-.38.43-.61,1.04-.49,1.27-1.57,4.43-2.14,6.02-.13.36-.19.5-.32.5-.12,0-.18-.13-.35-.49l-2.19-5c-.25.65-1.57,3.98-2.03,4.95-.19.41-.26.54-.4.54-.12,0-.17-.12-.28-.42l-2.25-6.39Z"/>
      <path class="cls-1" d="m82.99,3.17c0-1.56,0-1.8-.02-2.13-.02-.34-.13-.5-.36-.55-.11-.02-.24-.04-.37-.05-.11,0-.17-.04-.17-.12,0-.06.07-.1.24-.1.42,0,1.14.04,1.4.04.24,0,.95-.04,1.36-.04.14,0,.2.04.2.1,0,.08-.06.12-.17.12-.11.01-.16.01-.28.04-.29.05-.37.23-.4.58-.04.32-.04.56-.04,2.12v1.8c0,.96.01,1.74.06,2.17.02.28.11.49.42.53.16.04.3.04.46.05.13,0,.18.06.18.11,0,.07-.08.11-.2.11-.71,0-1.39-.04-1.64-.04-.2,0-.92.04-1.34.04-.14,0-.22-.04-.22-.11,0-.05.05-.11.18-.11.14-.01.23-.01.32-.04.2-.05.3-.23.32-.52.06-.43.06-1.2.06-2.19v-1.8Z"/>
      <path class="cls-1" d="m90.36,4.97c0,.91,0,1.71.05,2.16.04.28.1.5.42.54.14.02.36.04.52.05.12,0,.18.05.18.1,0,.07-.07.12-.22.12-.7,0-1.43-.04-1.69-.04-.24,0-.97.04-1.38.04-.14,0-.22-.05-.22-.12,0-.05.05-.1.18-.1.14-.01.26-.01.36-.04.23-.05.29-.26.32-.56.05-.43.05-1.2.05-2.15V.82c-.4,0-1.19,0-1.67.04-.61.05-.79.1-.94.36-.07.13-.1.22-.14.34-.02.07-.06.12-.12.12-.07,0-.1-.06-.1-.18.01-.22.2-1.07.23-1.2.02-.14.06-.22.12-.22.08,0,.18.1.44.12.29.04.72.06,1.08.06h4.25c.34,0,.56-.04.72-.06.16-.02.24-.05.3-.05.07,0,.08.06.08.24,0,.2-.05.95-.05,1.21-.01.11-.04.17-.11.17-.08,0-.1-.06-.11-.2,0-.04-.01-.08-.01-.13-.02-.28-.28-.55-1.16-.56-.29-.02-.73-.04-1.39-.05v4.15Z"/>
      <path class="cls-1" d="m100.32,3.43s.07-.02.07-.07v-.22c0-1.55,0-1.81-.02-2.13-.02-.34-.11-.47-.46-.54-.08-.01-.26-.02-.4-.04-.13,0-.19-.05-.19-.12s.07-.1.22-.1c.59,0,1.29.04,1.56.04.22,0,.98-.04,1.42-.04.14,0,.2.02.2.1s-.05.12-.18.12c-.11.01-.19.01-.31.04-.29.04-.37.19-.4.54-.02.32-.02.6-.02,2.16v1.8c0,.95,0,1.71.06,2.15.02.3.1.52.41.56.14.02.38.02.53.04.12,0,.17.06.17.11,0,.07-.08.11-.2.11-.7,0-1.44-.04-1.71-.04-.23,0-.91.04-1.36.04-.16,0-.22-.04-.22-.11,0-.05.04-.11.17-.11.14-.01.28-.01.37-.04.22-.05.28-.26.31-.58.06-.42.06-1.18.06-2.11v-.88s-.04-.06-.07-.06h-3.89s-.07.01-.07.06v.91c0,.95,0,1.65.06,2.1.02.29.11.5.42.54.16.04.37.04.52.05.12,0,.18.06.18.11,0,.07-.08.11-.22.11-.67,0-1.44-.04-1.7-.04-.22,0-.96.04-1.38.04-.12,0-.2-.04-.2-.11,0-.05.04-.11.17-.11.16-.01.28-.01.37-.04.22-.05.29-.28.31-.58.06-.42.06-1.19.06-2.13v-1.8c0-1.55,0-1.82-.02-2.15-.02-.35-.11-.48-.47-.55-.08-.02-.24-.02-.38-.04-.13,0-.18-.05-.18-.12s.08-.1.22-.1c.58,0,1.27.04,1.55.04s.98-.04,1.4-.04c.17,0,.23.04.23.11s-.08.11-.19.11c-.1.01-.23.02-.31.04-.29.04-.37.2-.4.55-.02.32-.02.62-.02,2.12v.22s.04.07.07.07h3.89Z"/>
    </g>
    <g>
      <path class="cls-1" d="m108.14.42c0-.23.04-.37.16-.37.11,0,.2.12.38.3.19.17,1.6,1.62,3.31,3.23.78.74,2.12,2.11,2.31,2.28l-.1-4.44c-.01-.61-.1-.82-.38-.92-.16-.05-.4-.05-.54-.06-.13,0-.18-.06-.18-.12,0-.08.12-.1.26-.1.53,0,1.07.04,1.33.04.13,0,.56-.04,1.07-.04.13,0,.23.02.23.11,0,.06-.05.11-.18.11-.11.01-.19.01-.3.04-.31.08-.41.29-.42.86-.05,1.54-.07,4.21-.11,6.34,0,.28-.06.37-.16.37-.13,0-.29-.13-.52-.34-.67-.61-1.95-1.85-2.95-2.81-1.06-.98-2.23-2.23-2.52-2.53l.11,4.16c.02.78.14,1.03.36,1.1.18.06.38.06.56.07.11,0,.18.04.18.1,0,.08-.1.12-.24.12-.62,0-1.04-.04-1.32-.04-.13,0-.68.04-1.2.04-.13,0-.23-.01-.23-.11,0-.06.06-.11.17-.11.13-.01.31-.01.46-.05.3-.08.35-.35.36-1.24.02-2.16.08-4.67.08-6.01Z"/>
      <path class="cls-1" d="m116.93,4.08c0-1.8,1.2-4.01,4.35-4.01,2.64,0,4.25,1.62,4.25,3.81,0,2.34-1.64,4.17-4.34,4.17-3.01,0-4.26-2.17-4.26-3.98Zm7.04.19c0-2.17-1.25-3.66-3-3.66-1.18,0-2.5.6-2.5,3.12,0,2.09,1.14,3.77,3.13,3.77.73,0,2.36-.3,2.36-3.23Z"/>
      <path class="cls-1" d="m127.5,3.17c0-1.56,0-1.79-.02-2.11-.02-.36-.12-.52-.44-.58-.13-.02-.28-.04-.41-.05-.12,0-.18-.04-.18-.11s.07-.11.23-.11c.54,0,1.27.04,1.48.04.32,0,1.18-.04,1.54-.04.72,0,1.43.07,1.97.42.34.22.78.73.78,1.43,0,.77-.36,1.45-1.4,2.23.89,1.1,1.63,2.05,2.25,2.69.58.61.97.66,1.16.71.11.01.19.01.28.02.1,0,.14.05.14.1,0,.08-.07.12-.2.12h-1.01c-.7,0-1-.07-1.29-.23-.42-.23-.82-.7-1.37-1.45-.43-.6-.88-1.24-1.03-1.42-.04-.05-.1-.06-.17-.06l-.85-.02s-.08.02-.08.08v.22c0,.92,0,1.63.05,2.05.02.3.1.53.42.56.14.04.36.04.5.05.1,0,.13.05.13.1,0,.07-.07.12-.2.12-.64,0-1.48-.04-1.63-.04-.18,0-.91.04-1.33.04-.13,0-.2-.04-.2-.11,0-.05.05-.11.17-.11.16-.01.29-.01.38-.04.2-.05.28-.26.3-.58.06-.42.06-1.19.06-2.13v-1.8Zm1.36.78c0,.1.02.14.1.17.22.08.53.12.8.12.38,0,.55-.05.73-.18.3-.22.59-.66.59-1.48,0-1.45-1-1.83-1.6-1.83-.25,0-.44.01-.54.05-.06.02-.08.06-.08.14v3.01Z"/>
      <path class="cls-1" d="m135.23,3.17c0-1.54,0-1.8-.02-2.12-.02-.34-.1-.55-.46-.59l-.41-.04c-.12,0-.18-.04-.18-.11s.07-.1.23-.1c.5,0,1.22.04,1.55.04.35,0,.96-.04,1.66-.04,1.42,0,3.05.05,4.17,1.18.53.52,1.02,1.37,1.02,2.59s-.56,2.24-1.15,2.83c-.49.48-1.52,1.2-3.5,1.2-.77,0-1.71-.12-2.23-.12-.29,0-.94.04-1.38.04-.14,0-.2-.04-.2-.11,0-.05.06-.11.18-.11s.24-.01.37-.04c.41-.07.36-1.1.36-2.71v-1.8Zm1.42,1.13c0,1.08.01,1.83.02,2.03.01.29.02.6.13.77.12.19.56.4,1.33.4,1.01,0,1.67-.19,2.29-.73.66-.55.85-1.45.85-2.49,0-1.22-.53-2.03-.98-2.48-.91-.89-2.05-1.03-2.84-1.03-.22,0-.6.04-.67.1-.11.08-.13.11-.13,2.19v1.26Z"/>
      <path class="cls-1" d="m144.75,3.17c0-1.56,0-1.8-.02-2.13-.02-.34-.13-.5-.36-.55-.11-.02-.24-.04-.37-.05-.11,0-.17-.04-.17-.12,0-.06.07-.1.24-.1.42,0,1.14.04,1.4.04.24,0,.95-.04,1.35-.04.14,0,.2.04.2.1,0,.08-.06.12-.17.12-.11.01-.16.01-.28.04-.29.05-.37.23-.4.58-.04.32-.04.56-.04,2.12v1.8c0,.96.01,1.74.06,2.17.02.28.11.49.42.53.16.04.3.04.46.05.13,0,.18.06.18.11,0,.07-.08.11-.2.11-.71,0-1.39-.04-1.64-.04-.2,0-.92.04-1.34.04-.14,0-.22-.04-.22-.11,0-.05.05-.11.18-.11.14-.01.23-.01.32-.04.2-.05.3-.23.32-.52.06-.43.06-1.2.06-2.19v-1.8Z"/>
      <path class="cls-1" d="m149.41,6.96c-1.04-.88-1.32-2-1.32-3.01,0-.7.23-1.91,1.25-2.81.79-.68,1.81-1.07,3.37-1.07.65,0,1.06.04,1.54.11.41.06.72.13,1.04.17.11.01.16.06.16.12,0,.08-.02.23-.05.59-.01.34-.01.92-.04,1.14-.01.16-.04.24-.13.24-.08,0-.13-.08-.13-.23-.01-.3-.11-.66-.4-.95-.35-.37-1.15-.64-2.12-.64-.88,0-1.46.2-1.92.6-.73.66-.96,1.61-.96,2.61,0,2.36,1.76,3.59,3.27,3.59.93,0,1.46-.1,1.87-.55.18-.19.3-.48.35-.7.05-.18.08-.22.17-.22.07,0,.11.07.11.16,0,.13-.13,1.04-.24,1.42-.05.18-.1.23-.28.3-.42.17-1.21.23-1.88.23-1.44,0-2.67-.28-3.66-1.1Z"/>
      <path class="cls-1" d="m163.66,4.97c0,.91,0,1.71.05,2.16.04.28.1.5.42.54.14.02.36.04.52.05.12,0,.18.05.18.1,0,.07-.07.12-.22.12-.7,0-1.43-.04-1.69-.04-.24,0-.97.04-1.38.04-.14,0-.22-.05-.22-.12,0-.05.05-.1.18-.1.14-.01.26-.01.36-.04.23-.05.29-.26.32-.56.05-.43.05-1.2.05-2.15V.82c-.4,0-1.19,0-1.67.04-.61.05-.79.1-.94.36-.07.13-.1.22-.14.34-.02.07-.06.12-.12.12-.07,0-.1-.06-.1-.18.01-.22.2-1.07.23-1.2.02-.14.06-.22.12-.22.08,0,.18.1.44.12.29.04.72.06,1.08.06h4.25c.34,0,.56-.04.72-.06s.24-.05.3-.05c.07,0,.08.06.08.24,0,.2-.05.95-.05,1.21-.01.11-.04.17-.11.17-.08,0-.1-.06-.11-.2,0-.04-.01-.08-.01-.13-.02-.28-.28-.55-1.16-.56-.29-.02-.73-.04-1.39-.05v4.15Z"/>
      <path class="cls-1" d="m168.25,3.17c0-1.56,0-1.83-.02-2.17-.02-.34-.11-.47-.43-.54-.1-.02-.26-.02-.41-.04-.12,0-.18-.04-.18-.11s.07-.1.24-.1c.5,0,.98.04,1.51.04.32,0,2.52,0,2.71-.01.2-.02.38-.05.48-.06.06-.01.12-.05.17-.05.06,0,.07.05.07.1,0,.07-.07.22-.1.65-.01.19-.02.4-.05.71,0,.06-.02.17-.12.17-.07,0-.1-.06-.11-.19,0-.05,0-.2-.06-.34-.07-.19-.17-.3-.68-.36-.2-.02-1.28-.05-1.52-.05-.05,0-.07.04-.07.11v2.48c0,.07.01.11.07.11.25,0,1.4,0,1.67-.01.3-.02.46-.06.55-.17.07-.1.12-.13.17-.13s.07.02.07.08c0,.07-.05.3-.08.79,0,.2-.04.64-.04.72s-.01.19-.11.19c-.07,0-.11-.11-.11-.17-.01-.1-.01-.16-.04-.28-.06-.23-.18-.38-.6-.42-.22-.02-1.22-.04-1.49-.04-.06,0-.07.05-.07.11v.78c0,.35-.01,1.19,0,1.5.02.71.18.86,1.28.86.28,0,.72,0,.98-.12.28-.13.4-.34.48-.77.02-.11.05-.17.13-.17s.08.1.08.2c0,.26-.08,1-.14,1.2-.07.26-.17.26-.56.26-1.04,0-1.94-.06-3.01-.06-.43,0-.86.04-1.37.04-.14,0-.22-.04-.22-.11,0-.05.04-.11.18-.11.14-.01.28-.01.37-.04.22-.05.28-.28.31-.64.05-.42.05-1.2.05-2.07v-1.8Z"/>
      <path class="cls-1" d="m174.45.42c0-.23.04-.37.16-.37.11,0,.2.12.38.3.19.17,1.6,1.62,3.31,3.23.78.74,2.12,2.11,2.31,2.28l-.1-4.44c-.01-.61-.1-.82-.38-.92-.16-.05-.4-.05-.54-.06-.13,0-.18-.06-.18-.12,0-.08.12-.1.26-.1.53,0,1.07.04,1.33.04.13,0,.56-.04,1.07-.04.13,0,.23.02.23.11,0,.06-.05.11-.18.11-.11.01-.19.01-.3.04-.31.08-.41.29-.42.86-.05,1.54-.07,4.21-.11,6.34,0,.28-.06.37-.16.37-.13,0-.29-.13-.52-.34-.67-.61-1.95-1.85-2.95-2.81-1.06-.98-2.23-2.23-2.52-2.53l.11,4.16c.02.78.14,1.03.36,1.1.18.06.38.06.56.07.11,0,.18.04.18.1,0,.08-.1.12-.24.12-.62,0-1.04-.04-1.32-.04-.13,0-.68.04-1.2.04-.13,0-.23-.01-.23-.11,0-.06.06-.11.17-.11.13-.01.31-.01.46-.05.3-.08.35-.35.36-1.24.02-2.16.08-4.67.08-6.01Z"/>
      <path class="cls-1" d="m183.24,4.08c0-1.8,1.2-4.01,4.35-4.01,2.64,0,4.25,1.62,4.25,3.81,0,2.34-1.64,4.17-4.34,4.17-3.01,0-4.26-2.17-4.26-3.98Zm7.04.19c0-2.17-1.25-3.66-3-3.66-1.18,0-2.5.6-2.5,3.12,0,2.09,1.14,3.77,3.13,3.77.73,0,2.36-.3,2.36-3.23Z"/>
      <path class="cls-1" d="m193.81,3.17c0-1.56,0-1.79-.02-2.11-.02-.36-.12-.52-.44-.58-.13-.02-.28-.04-.41-.05-.12,0-.18-.04-.18-.11s.07-.11.23-.11c.54,0,1.27.04,1.48.04.32,0,1.18-.04,1.54-.04.72,0,1.43.07,1.97.42.34.22.78.73.78,1.43,0,.77-.36,1.45-1.4,2.23.89,1.1,1.63,2.05,2.25,2.69.58.61.97.66,1.16.71.11.01.19.01.28.02.1,0,.14.05.14.1,0,.08-.07.12-.2.12h-1.01c-.7,0-1-.07-1.29-.23-.42-.23-.82-.7-1.37-1.45-.43-.6-.88-1.24-1.03-1.42-.04-.05-.1-.06-.17-.06l-.85-.02s-.08.02-.08.08v.22c0,.92,0,1.63.05,2.05.02.3.1.53.42.56.14.04.36.04.5.05.1,0,.13.05.13.1,0,.07-.07.12-.2.12-.64,0-1.48-.04-1.63-.04-.18,0-.91.04-1.33.04-.13,0-.2-.04-.2-.11,0-.05.05-.11.17-.11.16-.01.29-.01.38-.04.2-.05.28-.26.3-.58.06-.42.06-1.19.06-2.13v-1.8Zm1.36.78c0,.1.02.14.1.17.22.08.53.12.8.12.38,0,.55-.05.73-.18.3-.22.59-.66.59-1.48,0-1.45-1-1.83-1.6-1.83-.25,0-.44.01-.54.05-.06.02-.08.06-.08.14v3.01Z"/>
      <path class="cls-1" d="m201.37,7.8c-.17-.07-.2-.14-.2-.35,0-.61.04-1.21.05-1.39.01-.17.05-.26.13-.26.1,0,.11.08.12.17.01.13.01.31.07.48.22.78.88,1.1,1.56,1.1.96,0,1.39-.59,1.39-1.12,0-.48-.14-.94-1.03-1.58l-.5-.38c-1.19-.9-1.57-1.58-1.57-2.42,0-1.13.97-1.97,2.47-1.97.48,0,.77.06,1.07.11.17.02.31.06.43.07.1.01.12.06.12.13,0,.17-.05.46-.05,1.27,0,.23-.04.31-.12.31-.07,0-.11-.07-.12-.2-.01-.13-.08-.42-.24-.65-.18-.28-.52-.54-1.2-.54-.79,0-1.25.43-1.25,1.02,0,.44.22.84,1.08,1.43l.34.23c1.34.91,1.77,1.62,1.77,2.59,0,.62-.26,1.33-1.03,1.81-.54.32-1.15.41-1.7.41-.65,0-1.13-.07-1.58-.26Z"/>
    </g>
  </g>
</svg>